# xmcd
#
# Track frame offsets:
#	150
#	16807
#	33924
#	48039
#	69338
#	82496
#	98328
#	110041
#	126985
#	138072
#	153197
#	162013
#
# Disc length: 2333 seconds
# Revision: 0
# Processed by: cddbd v1.5.2PL0 Copyright (c) Steve Scherf et al.
# Submitted via: dBpowerAMP V12.0
#
DISCID=8a091b0c
DTITLE=Town Mountain - Steady Operator
DYEAR=2011
DGENRE=Country
TTITLE0=Sparkle City
TTITLE1=Diggin' On The Mountain
TTITLE2=Fallin' Off The Wagon
TTITLE3=Midnight Road
TTITLE4=Come Break My Heart
TTITLE5=Humble Shepherd
TTITLE6=All You Despise
TTITLE7=Five Shots Of Whiskey
TTITLE8=Hope Shadows Fear
TTITLE9=Sugar Mama
TTITLE10=Tarheel Boys
TTITLE11=Flannery's Reel
EXTD=
EXTT0=
EXTT1=
EXTT2=
EXTT3=
EXTT4=
EXTT5=
EXTT6=
EXTT7=
EXTT8=
EXTT9=
EXTT10=
EXTT11=
PLAYORDER=
